HIERARCHY
ROOT SpineBase
{
  OFFSET 0.000000 0.000000 0.000000
  CHANNELS 6 Xposition Yposition Zposition Zrotation Xrotation Yrotation
  JOINT SpineMid
  {
    OFFSET 0.000000 31.801788 0.000000
    CHANNELS 3 Zrotation Xrotation Yrotation
    JOINT SpineShoulder
    {
      OFFSET 0.024931 23.630068 -0.873617
      CHANNELS 3 Zrotation Xrotation Yrotation
      JOINT Neck
      {
        OFFSET -0.024047 7.800092 -0.643522
        CHANNELS 3 Zrotation Xrotation Yrotation
        JOINT Head
        {
          OFFSET 4.870498 13.527981 -2.834782
          CHANNELS 3 Zrotation Xrotation Yrotation
          End Site
          {
            OFFSET 0 0 0
          }
        }
      }
      JOINT ShoulderLeft
      {
        OFFSET -14.578623 -1.726568 -6.960806
        CHANNELS 3 Zrotation Xrotation Yrotation
        JOINT ElbowLeft
        {
          OFFSET -8.643437 -22.186890 -1.836792
          CHANNELS 3 Zrotation Xrotation Yrotation
          JOINT WristLeft
          {
            OFFSET 3.480663 -24.218335 -7.979791
            CHANNELS 3 Zrotation Xrotation Yrotation
            JOINT HandLeft
            {
              OFFSET 2.558108 -7.584632 -2.152845
              CHANNELS 3 Zrotation Xrotation Yrotation
              JOINT HandTipLeft
              {
                OFFSET 1.556417 -6.612691 -0.793132
                CHANNELS 3 Zrotation Xrotation Yrotation
                End Site
                {
                  OFFSET 0 0 0
                }
              }
              JOINT ThumbLeft
              {
                OFFSET -2.628364 -2.167368 -2.246252
                CHANNELS 3 Zrotation Xrotation Yrotation
                End Site
                {
                  OFFSET 0 0 0
                }
              }
            }
          }
        }
      }
      JOINT ShoulderRight
      {
        OFFSET 16.617146 -4.258948 7.486613
        CHANNELS 3 Zrotation Xrotation Yrotation
        JOINT ElbowRight
        {
          OFFSET 3.873182 -23.417680 5.308113
          CHANNELS 3 Zrotation Xrotation Yrotation
          JOINT WristRight
          {
            OFFSET 3.440201 -11.205096 -25.951565
            CHANNELS 3 Zrotation Xrotation Yrotation
            JOINT HandRight
            {
              OFFSET 1.446302 -0.820090 -3.365710
              CHANNELS 3 Zrotation Xrotation Yrotation
              JOINT HandTipRight
              {
                OFFSET 1.873527 -1.673459 -10.467629
                CHANNELS 3 Zrotation Xrotation Yrotation
                End Site
                {
                  OFFSET 0 0 0
                }
              }
              JOINT ThumbRight
              {
                OFFSET 3.293028 5.316640 -3.023998
                CHANNELS 3 Zrotation Xrotation Yrotation
                End Site
                {
                  OFFSET 0 0 0
                }
              }
            }
          }
        }
      }
    }
  }
  JOINT HipLeft
  {
    OFFSET -7.706440 1.546278 -6.217965
    CHANNELS 3 Zrotation Xrotation Yrotation
    JOINT KneeLeft
    {
      OFFSET -3.963910 -33.204696 3.045113
      CHANNELS 3 Zrotation Xrotation Yrotation
      JOINT AnkleLeft
      {
        OFFSET -5.690322 -34.356180 8.938190
        CHANNELS 3 Zrotation Xrotation Yrotation
        JOINT FootLeft
        {
          OFFSET 2.958959 -2.819515 -10.594161
          CHANNELS 3 Zrotation Xrotation Yrotation
          End Site
          {
            OFFSET 0 0 0
          }
        }
      }
    }
  }
  JOINT HipRight
  {
    OFFSET 6.941896 0.331326 -1.159655
    CHANNELS 3 Zrotation Xrotation Yrotation
    JOINT KneeRight
    {
      OFFSET -5.235560 -33.164273 3.914668
      CHANNELS 3 Zrotation Xrotation Yrotation
      JOINT AnkleRight
      {
        OFFSET -6.190107 -36.318011 11.604056
        CHANNELS 3 Zrotation Xrotation Yrotation
        JOINT FootRight
        {
          OFFSET 0.902769 -6.197627 -3.491361
          CHANNELS 3 Zrotation Xrotation Yrotation
          End Site
          {
            OFFSET 0 0 0
          }
        }
      }
    }
  }
}
MOTION
Frames: 8
Frame Time: 0.033333
39.346130 75.560571 328.218992 0.796230 -0.988775 -27.430992 0.063962 0.032657 27.470352 -0.114278 0.193067 0.026277 -10.092016 7.317745 -3.635242 0.000000 0.000000 0.000000 4.585379 2.120098 -1.169021 -4.075580 -10.119930 -0.614510 -5.280214 -5.851801 -1.960412 -1.911690 7.957803 3.616106 0.000000 0.000000 0.000000 0.000000 0.000000 0.000000 -6.573328 7.315570 0.119682 -9.146394 -66.037094 -9.336595 -13.644562 -5.359749 12.907540 7.313794 1.014070 -21.826758 0.000000 0.000000 0.000000 0.000000 0.000000 0.000000 -3.408714 -1.000720 27.223862 0.846456 -0.581146 -0.133301 -32.101363 -53.082195 -42.456578 0.000000 0.000000 0.000000 -1.162252 0.510686 27.443042 -1.935215 0.128628 -0.636525 8.237520 14.209921 -1.527560 0.000000 0.000000 0.000000
39.455181 75.564491 328.180434 0.830198 -0.931705 -27.456195 0.084824 0.051220 27.497371 -0.106884 0.178071 0.029753 -10.055646 7.502561 -3.701208 0.000000 0.000000 0.000000 4.427794 2.030920 -1.142266 -4.309543 -9.823264 -0.526684 -4.751458 -5.979869 -2.180542 -2.112425 7.505758 3.565315 0.000000 0.000000 0.000000 0.000000 0.000000 0.000000 -6.652473 7.297207 0.113650 -9.159107 -65.952532 -9.655277 -13.364564 -6.146308 14.097271 7.449564 2.228563 -23.154926 0.000000 0.000000 0.000000 0.000000 0.000000 0.000000 -3.466130 -1.212423 27.244305 0.826148 -0.555774 -0.157995 -26.236904 -50.352823 -35.269803 0.000000 0.000000 0.000000 -1.166294 0.443876 27.467463 -1.987043 0.094753 -0.647705 4.986694 7.058340 -0.199832 0.000000 0.000000 0.000000
39.566889 75.563192 328.142510 0.865774 -0.878505 -27.490502 0.091482 0.072741 27.533176 -0.102260 0.171266 0.032607 -9.992147 7.557566 -3.734196 0.000000 0.000000 0.000000 4.239838 2.066923 -1.170063 -4.308760 -9.821116 -0.453944 -4.495777 -6.188840 -2.345133 -2.472415 6.565779 3.449041 0.000000 0.000000 0.000000 0.000000 0.000000 0.000000 -6.717747 7.253142 0.104481 -9.091187 -65.881755 -9.607999 -13.648806 -6.915258 13.765677 7.575968 1.819789 -22.426981 0.000000 0.000000 0.000000 0.000000 0.000000 0.000000 -3.536863 -1.427523 27.272444 0.830740 -0.436512 -0.191913 -24.580981 -50.278088 -31.328240 0.000000 0.000000 0.000000 -1.173553 0.379567 27.501027 -2.058529 0.042661 -0.662344 0.566748 -2.477859 1.138451 0.000000 0.000000 0.000000
39.665589 75.552642 328.091283 0.890073 -0.817790 -27.550297 0.102044 0.091058 27.593987 -0.100718 0.162627 0.034856 -10.008628 7.515097 -3.750609 0.000000 0.000000 0.000000 4.075736 2.068120 -1.183338 -4.308653 -9.866874 -0.407640 -3.976618 -6.486932 -2.638761 -2.310369 6.070962 3.341113 0.000000 0.000000 0.000000 0.000000 0.000000 0.000000 -6.771766 7.217723 0.098073 -8.920157 -65.823905 -9.104535 -14.864513 -7.612817 11.041157 8.278935 1.519050 -20.181018 0.000000 0.000000 0.000000 0.000000 0.000000 0.000000 -3.657963 -1.622986 27.314917 0.910655 -0.468086 -0.194206 -23.959212 -50.553668 -29.048551 0.000000 0.000000 0.000000 -1.167401 0.313280 27.559841 -2.130014 -0.013122 -0.676476 0.958178 -2.918168 0.900572 0.000000 0.000000 0.000000
39.738452 75.544881 328.035315 0.907696 -0.754722 -27.621481 0.107266 0.106229 27.665691 -0.097756 0.161743 0.036619 -10.107289 7.451519 -3.776390 0.000000 0.000000 0.000000 3.924010 2.056666 -1.193983 -4.177064 -10.022400 -0.409394 -3.908200 -6.832098 -2.810613 -1.188392 5.616627 2.922693 0.000000 0.000000 0.000000 0.000000 0.000000 0.000000 -6.855445 7.339542 0.121868 -9.132198 -66.158202 -9.442957 -15.610228 -8.660793 9.938573 9.509440 3.748990 -19.670240 0.000000 0.000000 0.000000 0.000000 0.000000 0.000000 -3.622661 -1.843876 27.391460 0.866657 -0.301023 -0.233209 -22.934060 -50.384347 -26.881869 0.000000 0.000000 0.000000 -1.154157 0.247788 27.629955 -2.177138 -0.049958 -0.685816 3.632423 2.955939 0.229619 0.000000 0.000000 0.000000
39.793905 75.542661 327.995419 0.918067 -0.716192 -27.660290 0.109427 0.113625 27.704755 -0.091572 0.155704 0.037958 -10.068684 7.447635 -3.786469 0.000000 0.000000 0.000000 3.793227 2.027474 -1.184641 -4.008540 -10.202284 -0.452774 -3.897757 -7.066591 -2.927754 -1.202794 3.971102 2.550366 0.000000 0.000000 0.000000 0.000000 0.000000 0.000000 -6.862510 7.270597 0.111075 -9.197417 -66.220082 -9.481428 -15.998460 -9.038941 9.284375 9.906262 4.411418 -19.363824 0.000000 0.000000 0.000000 0.000000 0.000000 0.000000 -3.521945 -1.997674 27.446354 0.717792 -0.064536 -0.294715 -22.064859 -50.135670 -25.509185 0.000000 0.000000 0.000000 -1.145621 0.208070 27.668108 -2.220620 -0.077277 -0.695475 3.892481 3.562683 0.183153 0.000000 0.000000 0.000000
39.826845 75.545199 327.979663 0.913699 -0.708005 -27.708550 0.106244 0.116928 27.752688 -0.081454 0.151147 0.038540 -9.829761 7.347179 -3.730868 0.000000 0.000000 0.000000 3.791843 2.051223 -1.198610 -4.018387 -10.557785 -0.483834 -3.709715 -7.169602 -3.084233 -1.634620 5.335067 3.125493 0.000000 0.000000 0.000000 0.000000 0.000000 0.000000 -6.814641 7.060565 0.073409 -8.733233 -65.638943 -8.690006 -15.980015 -9.408913 9.327909 10.182028 5.485072 -19.991337 0.000000 0.000000 0.000000 0.000000 0.000000 0.000000 -3.350994 -2.084739 27.522167 0.453285 0.170364 -0.370837 -21.306606 -50.053666 -24.155930 0.000000 0.000000 0.000000 -1.138121 0.201891 27.716200 -2.272840 -0.088265 -0.710417 3.917000 4.184071 0.288450 0.000000 0.000000 0.000000
39.843492 75.554890 327.966325 0.896765 -0.704575 -27.767566 0.096163 0.109786 27.810612 -0.070323 0.154198 0.038083 -9.227024 7.077504 -3.578422 0.000000 0.000000 0.000000 3.805793 2.071918 -1.207491 -3.960565 -10.734219 -0.507532 -3.580778 -7.337889 -3.209792 -1.277393 6.646181 3.407783 0.000000 0.000000 0.000000 0.000000 0.000000 0.000000 -6.716476 6.759389 0.021987 -8.397769 -65.025811 -8.284937 -15.209347 -9.191506 10.886448 9.668190 6.781976 -22.962046 0.000000 0.000000 0.000000 0.000000 0.000000 0.000000 -3.114846 -2.141149 27.616991 0.138717 0.421836 -0.450312 -20.919476 -50.097932 -23.607871 0.000000 0.000000 0.000000 -1.121747 0.205575 27.775093 -2.327404 -0.091658 -0.727263 2.676491 4.953183 1.168432 0.000000 0.000000 0.000000
